<svg viewBox="0 0 18 17" fill="none" xmlns="http://www.w3.org/2000/svg">
<path fill-rule="evenodd" clip-rule="evenodd" d="M0.75 8.5C0.75 4.22902 4.50689 0.875 9 0.875C13.4931 0.875 17.25 4.22902 17.25 8.5C17.25 12.771 13.4931 16.125 9 16.125C8.31485 16.125 7.64714 16.0481 7.00771 15.9014C6.13233 16.4396 5.10154 16.75 4 16.75V16.0001L4.00111 16.75C4.00074 16.75 4.00037 16.75 4 16.75C3.65824 16.7504 3.31713 16.7203 2.98075 16.6599C2.71676 16.6124 2.49819 16.4277 2.4075 16.1752C2.31682 15.9228 2.36783 15.6412 2.54128 15.4366C2.83347 15.092 3.04364 14.6856 3.15597 14.248L3.88112 14.4338L3.15603 14.2478C3.18877 14.1195 3.14112 13.8843 2.85534 13.5884C1.5532 12.2463 0.75 10.4642 0.75 8.5ZM9 2.375C5.20977 2.375 2.25 5.17765 2.25 8.5C2.25 10.0422 2.87822 11.4581 3.93238 12.5443L3.93347 12.5455C4.36708 12.9941 4.83282 13.747 4.60903 14.6203L4.60897 14.6206C4.55541 14.8293 4.48705 15.0332 4.40464 15.231C5.15808 15.16 5.85302 14.8926 6.43968 14.4805C6.62215 14.3523 6.85221 14.3119 7.06741 14.3704C7.67799 14.5362 8.32687 14.625 9 14.625C12.7902 14.625 15.75 11.8223 15.75 8.5C15.75 5.17765 12.7902 2.375 9 2.375Z" fill="currentColor"/>
</svg>
