<svg viewBox="0 0 26 24" fill="currentColor" xmlns="http://www.w3.org/2000/svg">
<path d="M6.33325 15.333H19.6666C19.9555 15.333 20.1946 15.2383 20.3839 15.049C20.5724 14.8606 20.6666 14.6219 20.6666 14.333C20.6666 14.0441 20.5724 13.805 20.3839 13.6157C20.1946 13.4272 19.9555 13.333 19.6666 13.333H6.33325C6.04436 13.333 5.8057 13.4272 5.61725 13.6157C5.42792 13.805 5.33325 14.0441 5.33325 14.333C5.33325 14.6219 5.42792 14.8606 5.61725 15.049C5.8057 15.2383 6.04436 15.333 6.33325 15.333ZM6.33325 11.333H19.6666C19.9555 11.333 20.1946 11.2383 20.3839 11.049C20.5724 10.8606 20.6666 10.6219 20.6666 10.333C20.6666 10.0441 20.5724 9.80501 20.3839 9.61567C20.1946 9.42723 19.9555 9.33301 19.6666 9.33301H6.33325C6.04436 9.33301 5.8057 9.42723 5.61725 9.61567C5.42792 9.80501 5.33325 10.0441 5.33325 10.333C5.33325 10.6219 5.42792 10.8606 5.61725 11.049C5.8057 11.2383 6.04436 11.333 6.33325 11.333ZM6.33325 7.33301H19.6666C19.9555 7.33301 20.1946 7.23834 20.3839 7.04901C20.5724 6.86056 20.6666 6.6219 20.6666 6.33301C20.6666 6.04412 20.5724 5.80545 20.3839 5.61701C20.1946 5.42767 19.9555 5.33301 19.6666 5.33301H6.33325C6.04436 5.33301 5.8057 5.42767 5.61725 5.61701C5.42792 5.80545 5.33325 6.04412 5.33325 6.33301C5.33325 6.6219 5.42792 6.86056 5.61725 7.04901C5.8057 7.23834 6.04436 7.33301 6.33325 7.33301ZM23.6333 22.9997L20.9333 20.333H2.73325C2.06659 20.333 1.49992 20.0997 1.03325 19.633C0.566585 19.1663 0.333252 18.5997 0.333252 17.933V2.73301C0.333252 2.06634 0.566585 1.49967 1.03325 1.03301C1.49992 0.566341 2.06659 0.333008 2.73325 0.333008H23.2666C23.9333 0.333008 24.4999 0.566341 24.9666 1.03301C25.4333 1.49967 25.6666 2.06634 25.6666 2.73301V22.133C25.6666 22.6663 25.4221 23.0388 24.9333 23.2503C24.4444 23.461 24.011 23.3775 23.6333 22.9997ZM2.33325 2.73301V18.333H21.7666L23.6666 20.233V2.73301C23.6666 2.6219 23.6279 2.52723 23.5506 2.44901C23.4724 2.37167 23.3777 2.33301 23.2666 2.33301H2.73325C2.62214 2.33301 2.52792 2.37167 2.45059 2.44901C2.37236 2.52723 2.33325 2.6219 2.33325 2.73301ZM2.33325 2.73301V20.233V2.33301V2.73301Z" fill="currentColor"/>
</svg>
