<svg width="12" height="12" viewBox="0 0 12 12" fill="none" xmlns="http://www.w3.org/2000/svg">
<path d="M1 12C0.733333 12 0.5 11.9 0.3 11.7C0.1 11.5 0 11.2667 0 11V1C0 0.733333 0.1 0.5 0.3 0.3C0.5 0.1 0.733333 0 1 0H11C11.2667 0 11.5 0.1 11.7 0.3C11.9 0.5 12 0.733333 12 1V11C12 11.2667 11.9 11.5 11.7 11.7C11.5 11.9 11.2667 12 11 12H1ZM1 11H11V1H1V11ZM3.23333 9.38333C3.37778 9.38333 3.49722 9.33611 3.59167 9.24167C3.68611 9.14722 3.73333 9.02778 3.73333 8.88333V6.46667C3.73333 6.32222 3.68611 6.20278 3.59167 6.10833C3.49722 6.01389 3.37778 5.96667 3.23333 5.96667C3.08889 5.96667 2.96944 6.01389 2.875 6.10833C2.78056 6.20278 2.73333 6.32222 2.73333 6.46667V8.88333C2.73333 9.02778 2.78056 9.14722 2.875 9.24167C2.96944 9.33611 3.08889 9.38333 3.23333 9.38333ZM8.76667 9.38333C8.91111 9.38333 9.03056 9.33611 9.125 9.24167C9.21944 9.14722 9.26667 9.02778 9.26667 8.88333V2.88333C9.26667 2.73889 9.21944 2.61944 9.125 2.525C9.03056 2.43056 8.91111 2.38333 8.76667 2.38333C8.62222 2.38333 8.50278 2.43056 8.40833 2.525C8.31389 2.61944 8.26667 2.73889 8.26667 2.88333V8.88333C8.26667 9.02778 8.31389 9.14722 8.40833 9.24167C8.50278 9.33611 8.62222 9.38333 8.76667 9.38333ZM6 9.38333C6.14444 9.38333 6.26389 9.33611 6.35833 9.24167C6.45278 9.14722 6.5 9.02778 6.5 8.88333V7.91667C6.5 7.77222 6.45278 7.65278 6.35833 7.55833C6.26389 7.46389 6.14444 7.41667 6 7.41667C5.85556 7.41667 5.73611 7.46389 5.64167 7.55833C5.54722 7.65278 5.5 7.77222 5.5 7.91667V8.88333C5.5 9.02778 5.54722 9.14722 5.64167 9.24167C5.73611 9.33611 5.85556 9.38333 6 9.38333ZM6.01667 5.96667C6.15 5.96667 6.26389 5.91944 6.35833 5.825C6.45278 5.73056 6.5 5.61111 6.5 5.46667V5.45C6.5 5.31667 6.45 5.20278 6.35 5.10833C6.25 5.01389 6.13333 4.96667 6 4.96667C5.85556 4.96667 5.73611 5.01389 5.64167 5.10833C5.54722 5.20278 5.5 5.32222 5.5 5.46667V5.48333C5.5 5.61667 5.55 5.73056 5.65 5.825C5.75 5.91944 5.87222 5.96667 6.01667 5.96667ZM1 11V1V11Z" fill="#94ABAB"/>
</svg>
