<svg viewBox="0 0 22 27" fill="currentColor" xmlns="http://www.w3.org/2000/svg">
<path d="M1.66666 22.1671C1.37777 22.1671 1.1391 22.0671 0.950656 21.8671C0.761323 21.6671 0.666656 21.4337 0.666656 21.1671C0.666656 20.8782 0.761323 20.6391 0.950656 20.4497C1.1391 20.2613 1.37777 20.1671 1.66666 20.1671H3.33332V10.5004C3.33332 8.72261 3.88888 7.12795 4.99999 5.71639C6.1111 4.30572 7.55554 3.40039 9.33332 3.00039V2.06706C9.33332 1.60039 9.49466 1.20572 9.81732 0.883057C10.1391 0.561279 10.5333 0.400391 11 0.400391C11.4667 0.400391 11.8609 0.561279 12.1827 0.883057C12.5053 1.20572 12.6667 1.60039 12.6667 2.06706V3.00039C14.4444 3.40039 15.8889 4.30572 17 5.71639C18.1111 7.12795 18.6667 8.72261 18.6667 10.5004V20.1671H20.3333C20.6222 20.1671 20.8613 20.2613 21.0507 20.4497C21.2391 20.6391 21.3333 20.8782 21.3333 21.1671C21.3333 21.4337 21.2391 21.6671 21.0507 21.8671C20.8613 22.0671 20.6222 22.1671 20.3333 22.1671H1.66666ZM11 26.0671C10.3333 26.0671 9.76666 25.8337 9.29999 25.3671C8.83332 24.9004 8.59999 24.3337 8.59999 23.6671H13.4C13.4 24.3337 13.1667 24.9004 12.7 25.3671C12.2333 25.8337 11.6667 26.0671 11 26.0671ZM5.33332 20.1671H16.6667V10.5004C16.6667 8.92261 16.1111 7.5835 15 6.48306C13.8889 5.3835 12.5555 4.83372 11 4.83372C9.44443 4.83372 8.1111 5.3835 6.99999 6.48306C5.88888 7.5835 5.33332 8.92261 5.33332 10.5004V20.1671Z" fill="currentColor"/>
</svg>
