<svg width="22" height="22" viewBox="0 0 22 22" fill="none" xmlns="http://www.w3.org/2000/svg">
<path d="M10.9987 10.9661C9.53203 10.9661 8.33203 10.4994 7.3987 9.56606C6.46536 8.63273 5.9987 7.43273 5.9987 5.96606C5.9987 4.4994 6.46536 3.2994 7.3987 2.36606C8.33203 1.43273 9.53203 0.966064 10.9987 0.966064C12.4654 0.966064 13.6654 1.43273 14.5987 2.36606C15.532 3.2994 15.9987 4.4994 15.9987 5.96606C15.9987 7.43273 15.532 8.63273 14.5987 9.56606C13.6654 10.4994 12.4654 10.9661 10.9987 10.9661ZM2.33203 21.6661C1.77648 21.6661 1.30425 21.4716 0.915365 21.0827C0.526476 20.6938 0.332031 20.2216 0.332031 19.6661V18.5327C0.332031 17.6883 0.543142 16.9661 0.965364 16.3661C1.38759 15.7661 1.93203 15.3105 2.5987 14.9994C4.08759 14.3327 5.51537 13.8327 6.88203 13.4994C8.2487 13.1661 9.62092 12.9994 10.9987 12.9994C12.3765 12.9994 13.7431 13.1716 15.0987 13.5161C16.4543 13.8605 17.8765 14.355 19.3654 14.9994C20.0543 15.3105 20.6098 15.7661 21.032 16.3661C21.4543 16.9661 21.6654 17.6883 21.6654 18.5327V19.6661C21.6654 20.2216 21.4709 20.6938 21.082 21.0827C20.6931 21.4716 20.2209 21.6661 19.6654 21.6661H2.33203ZM2.33203 19.6661H19.6654V18.5327C19.6654 18.1772 19.5598 17.8383 19.3487 17.5161C19.1376 17.1938 18.8765 16.955 18.5654 16.7994C17.1431 16.1105 15.8431 15.6383 14.6654 15.3827C13.4876 15.1272 12.2654 14.9994 10.9987 14.9994C9.73203 14.9994 8.4987 15.1272 7.2987 15.3827C6.0987 15.6383 4.7987 16.1105 3.3987 16.7994C3.08759 16.955 2.83203 17.1938 2.63203 17.5161C2.43203 17.8383 2.33203 18.1772 2.33203 18.5327V19.6661ZM10.9987 8.96606C11.8654 8.96606 12.582 8.68273 13.1487 8.11606C13.7154 7.5494 13.9987 6.83273 13.9987 5.96606C13.9987 5.0994 13.7154 4.38273 13.1487 3.81606C12.582 3.2494 11.8654 2.96606 10.9987 2.96606C10.132 2.96606 9.41536 3.2494 8.8487 3.81606C8.28203 4.38273 7.9987 5.0994 7.9987 5.96606C7.9987 6.83273 8.28203 7.5494 8.8487 8.11606C9.41536 8.68273 10.132 8.96606 10.9987 8.96606Z" fill="currentColor"/>
</svg>
