<svg viewBox="0 0 16 13" fill="none" xmlns="http://www.w3.org/2000/svg">
<path d="M1.125 12.3327C0.944444 12.3327 0.795139 12.2737 0.677083 12.1556C0.559028 12.0375 0.5 11.8882 0.5 11.7077V8.70768C0.5 7.61046 0.888889 6.67643 1.66667 5.9056C2.44444 5.13477 3.375 4.74935 4.45833 4.74935H13.125L10.3333 1.95768C10.2222 1.84657 10.1667 1.70768 10.1667 1.54102C10.1667 1.37435 10.2292 1.22852 10.3542 1.10352C10.4792 0.978516 10.625 0.916016 10.7917 0.916016C10.9583 0.916016 11.1042 0.978516 11.2292 1.10352L15.0625 4.93685C15.1319 5.00629 15.1806 5.07574 15.2083 5.14518C15.2361 5.21463 15.25 5.29102 15.25 5.37435C15.25 5.45768 15.2361 5.53407 15.2083 5.60352C15.1806 5.67296 15.1319 5.7424 15.0625 5.81185L11.2083 9.66602C11.0972 9.77713 10.9583 9.83268 10.7917 9.83268C10.625 9.83268 10.4792 9.77018 10.3542 9.64518C10.2292 9.52018 10.1667 9.37435 10.1667 9.20768C10.1667 9.04102 10.2292 8.89518 10.3542 8.77018L13.125 5.99935H4.45833C3.70833 5.99935 3.06944 6.26324 2.54167 6.79102C2.01389 7.31879 1.75 7.95768 1.75 8.70768V11.7077C1.75 11.8882 1.69097 12.0375 1.57292 12.1556C1.45486 12.2737 1.30556 12.3327 1.125 12.3327Z" fill="#626A6E"/>
</svg>
