<svg width="11" height="12" viewBox="0 0 11 12" fill="none" xmlns="http://www.w3.org/2000/svg">
<path d="M0.833252 11.9993C0.688808 11.9993 0.569363 11.9521 0.474919 11.8577C0.380474 11.7632 0.333252 11.6438 0.333252 11.4993V1.16602C0.333252 1.02157 0.380474 0.902127 0.474919 0.807682C0.569363 0.713238 0.688808 0.666016 0.833252 0.666016H5.64992C5.77214 0.666016 5.8777 0.702127 5.96659 0.774349C6.05547 0.846571 6.11103 0.943793 6.13325 1.06602L6.36659 2.09935H9.83325C9.9777 2.09935 10.0971 2.14657 10.1916 2.24102C10.286 2.33546 10.3333 2.4549 10.3333 2.59935V7.76602C10.3333 7.91046 10.286 8.0299 10.1916 8.12435C10.0971 8.21879 9.9777 8.26602 9.83325 8.26602H6.46659C6.35547 8.26602 6.2527 8.23268 6.15825 8.16602C6.06381 8.09935 6.00547 8.0049 5.98325 7.88268L5.74992 6.84935H1.33325V11.4993C1.33325 11.6438 1.28603 11.7632 1.19159 11.8577C1.09714 11.9521 0.977696 11.9993 0.833252 11.9993ZM6.91659 7.26602H9.33325V3.09935H5.51659L5.19992 1.66602H1.33325V5.84935H6.59992L6.91659 7.26602Z" fill="#94ABAB"/>
</svg>
