<svg width="17" height="16" viewBox="0 0 21 19" fill="none" xmlns="http://www.w3.org/2000/svg">
<path d="M5.2 18.8763V6.87635L11.025 1.10135C11.225 0.901345 11.4543 0.784679 11.713 0.751345C11.971 0.718012 12.225 0.759679 12.475 0.876345C12.7083 1.00968 12.8833 1.19301 13 1.42635C13.1167 1.65968 13.1417 1.90968 13.075 2.17635L12 6.87635H18.7C19.1667 6.87635 19.5833 7.05968 19.95 7.42635C20.3167 7.79301 20.5 8.20968 20.5 8.67635V10.3013C20.5 10.4013 20.4873 10.5137 20.462 10.6383C20.4373 10.7637 20.4083 10.8763 20.375 10.9763L17.5 17.7263C17.3667 18.0597 17.1293 18.3347 16.788 18.5513C16.446 18.768 16.0917 18.8763 15.725 18.8763H5.2ZM6.7 7.52635V17.3763H15.725C15.7917 17.3763 15.8627 17.3557 15.938 17.3143C16.0127 17.2723 16.075 17.2097 16.125 17.1263L19 10.3763V8.67635C19 8.59301 18.971 8.52201 18.913 8.46335C18.8543 8.40535 18.7833 8.37635 18.7 8.37635H10.1L11.35 2.90135L6.7 7.52635ZM2.3 18.8763C1.8 18.8763 1.375 18.7013 1.025 18.3513C0.675 18.0013 0.5 17.5763 0.5 17.0763V8.67635C0.5 8.17635 0.675 7.75135 1.025 7.40135C1.375 7.05135 1.8 6.87635 2.3 6.87635H5.2V8.37635H2.3C2.21667 8.37635 2.146 8.40535 2.088 8.46335C2.02933 8.52201 2 8.59301 2 8.67635V17.0763C2 17.1597 2.02933 17.2307 2.088 17.2893C2.146 17.3473 2.21667 17.3763 2.3 17.3763H5.2V18.8763H2.3Z" fill="#626A6E"/>
</svg>
