<svg width="17" height="16" viewBox="0 0 21 20" fill="none" xmlns="http://www.w3.org/2000/svg">
<path d="M2.72187 12.8765C2.25521 12.8765 1.83854 12.6931 1.47187 12.3265C1.10521 11.9598 0.921875 11.5431 0.921875 11.0765V9.45146C0.921875 9.35146 0.934542 9.2388 0.959875 9.11347C0.984542 8.9888 1.01354 8.87646 1.04688 8.77646L3.92188 2.02646C4.05521 1.69313 4.29287 1.41813 4.63487 1.20146C4.97621 0.984798 5.33021 0.876465 5.69688 0.876465H16.2219V12.8765L10.3969 18.6515C10.1969 18.8515 9.96788 18.9681 9.70988 19.0015C9.45121 19.0348 9.19687 18.9931 8.94687 18.8765C8.71354 18.7431 8.53854 18.5598 8.42188 18.3265C8.30521 18.0931 8.28021 17.8431 8.34688 17.5765L9.42188 12.8765H2.72187ZM14.7219 12.2265V2.37646H5.69688C5.63021 2.37646 5.55921 2.39713 5.48387 2.43846C5.40921 2.48046 5.34688 2.54313 5.29688 2.62646L2.42188 9.37646V11.0765C2.42188 11.1598 2.45121 11.2305 2.50988 11.2885C2.56788 11.3471 2.63854 11.3765 2.72187 11.3765H11.3219L10.0719 16.8515L14.7219 12.2265ZM19.1219 0.876465C19.6219 0.876465 20.0469 1.05146 20.3969 1.40146C20.7469 1.75146 20.9219 2.17647 20.9219 2.67647V11.0765C20.9219 11.5765 20.7469 12.0015 20.3969 12.3515C20.0469 12.7015 19.6219 12.8765 19.1219 12.8765H16.2219V11.3765H19.1219C19.2052 11.3765 19.2762 11.3471 19.3349 11.2885C19.3929 11.2305 19.4219 11.1598 19.4219 11.0765V2.67647C19.4219 2.59313 19.3929 2.52246 19.3349 2.46446C19.2762 2.4058 19.2052 2.37646 19.1219 2.37646H16.2219V0.876465H19.1219Z" fill="#B8CACA"/>
</svg>
