<svg width="17" height="16" viewBox="0 0 17 16" fill="none" xmlns="http://www.w3.org/2000/svg">
<path d="M1.75 10.4167C1.36111 10.4167 1.01389 10.264 0.708333 9.95841C0.402778 9.65286 0.25 9.30564 0.25 8.91675V7.56258C0.25 7.47925 0.260556 7.38536 0.281667 7.28091C0.302222 7.17703 0.326389 7.08341 0.354167 7.00008L2.75 1.37508C2.86111 1.0973 3.05917 0.868137 3.34417 0.687581C3.62861 0.507026 3.92361 0.416748 4.22917 0.416748H10.9792C11.3958 0.416748 11.75 0.562581 12.0417 0.854248C12.3333 1.14591 12.4792 1.50008 12.4792 1.91675V9.79175C12.4792 10.0001 12.4375 10.1945 12.3542 10.3751C12.2708 10.5556 12.1597 10.7154 12.0208 10.8542L7.625 15.2292C7.45833 15.3959 7.26389 15.4965 7.04167 15.5309C6.81944 15.5659 6.61111 15.5348 6.41667 15.4376C6.22222 15.3265 6.07972 15.1737 5.98917 14.9792C5.89917 14.7848 5.88194 14.5765 5.9375 14.3542L6.83333 10.4167H1.75ZM15.4167 0.416748C15.8333 0.416748 16.1875 0.562581 16.4792 0.854248C16.7708 1.14591 16.9167 1.50008 16.9167 1.91675V8.91675C16.9167 9.33341 16.7708 9.68758 16.4792 9.97925C16.1875 10.2709 15.8333 10.4167 15.4167 10.4167H15.2292C14.8125 10.4167 14.4583 10.2709 14.1667 9.97925C13.875 9.68758 13.7292 9.33341 13.7292 8.91675V1.91675C13.7292 1.50008 13.875 1.14591 14.1667 0.854248C14.4583 0.562581 14.8125 0.416748 15.2292 0.416748H15.4167Z" fill="currentColor"/>
</svg>
