<svg width="17" height="16" viewBox="0 0 17 16" fill="none" xmlns="http://www.w3.org/2000/svg">
<path d="M6.01953 15.5833C5.60286 15.5833 5.2487 15.4375 4.95703 15.1458C4.66536 14.8542 4.51953 14.5 4.51953 14.0834V6.20835C4.51953 6.00002 4.5612 5.80557 4.64453 5.62502C4.72786 5.44446 4.83898 5.28474 4.97786 5.14585L9.3737 0.77085C9.54036 0.604183 9.73481 0.50335 9.95703 0.46835C10.1793 0.433906 10.3876 0.465295 10.582 0.562517C10.7765 0.673628 10.919 0.826406 11.0095 1.02085C11.0995 1.21529 11.1168 1.42363 11.0612 1.64585L10.1654 5.58335H15.2487C15.6376 5.58335 15.9848 5.73613 16.2904 6.04168C16.5959 6.34724 16.7487 6.69446 16.7487 7.08335V8.43752C16.7487 8.52085 16.7381 8.61446 16.717 8.71835C16.6965 8.82279 16.6723 8.91668 16.6445 9.00002L14.2487 14.625C14.1376 14.9028 13.9398 15.132 13.6554 15.3125C13.3704 15.4931 13.0751 15.5833 12.7695 15.5833H6.01953ZM1.58203 15.5833C1.16536 15.5833 0.811198 15.4375 0.519531 15.1458C0.227865 14.8542 0.0820312 14.5 0.0820312 14.0834V7.08335C0.0820312 6.66668 0.227865 6.31252 0.519531 6.02085C0.811198 5.72918 1.16536 5.58335 1.58203 5.58335H1.76953C2.1862 5.58335 2.54036 5.72918 2.83203 6.02085C3.1237 6.31252 3.26953 6.66668 3.26953 7.08335V14.0834C3.26953 14.5 3.1237 14.8542 2.83203 15.1458C2.54036 15.4375 2.1862 15.5833 1.76953 15.5833H1.58203Z" fill="currentColor"/>
</svg>
