<svg viewBox="0 0 18 19" fill="currentColor">
<path d="M2.0625 15.5004C1.9 15.5004 1.76563 15.4473 1.65938 15.341C1.55313 15.2348 1.5 15.1004 1.5 14.9379V13.7379C1.5 13.3129 1.60625 12.9223 1.81875 12.566C2.03125 12.2098 2.35 11.9379 2.775 11.7504C3.675 11.3504 4.5 11.0629 5.25 10.8879C6 10.7129 6.75 10.6254 7.5 10.6254C7.8625 10.6254 8.24688 10.6473 8.65313 10.691C9.05938 10.7348 9.475 10.8129 9.9 10.9254L8.98125 11.8441C8.73125 11.8191 8.48438 11.7973 8.24063 11.7785C7.99688 11.7598 7.75 11.7504 7.5 11.7504C6.775 11.7504 6.11563 11.816 5.52188 11.9473C4.92813 12.0785 4.1625 12.3504 3.225 12.7629C3.0125 12.8629 2.85938 13.0066 2.76563 13.1941C2.67188 13.3816 2.625 13.5629 2.625 13.7379V14.3754H8.60625L9.73125 15.5004H2.0625ZM11.7188 15.5754C11.6438 15.5754 11.575 15.5629 11.5125 15.5379C11.45 15.5129 11.3875 15.4691 11.325 15.4066L9.46875 13.5504C9.35625 13.4379 9.3 13.3066 9.3 13.1566C9.3 13.0066 9.35625 12.8754 9.46875 12.7629C9.58125 12.6504 9.7125 12.5941 9.8625 12.5941C10.0125 12.5941 10.1438 12.6504 10.2563 12.7629L11.7188 14.2254L15.3188 10.6254C15.4313 10.5129 15.5625 10.4566 15.7125 10.4566C15.8625 10.4566 15.9938 10.5129 16.1063 10.6254C16.2188 10.7379 16.275 10.8691 16.275 11.0191C16.275 11.1691 16.2188 11.3004 16.1063 11.4129L12.1125 15.4066C12.05 15.4691 11.9875 15.5129 11.925 15.5379C11.8625 15.5629 11.7938 15.5754 11.7188 15.5754ZM7.5 9.46289C6.675 9.46289 6 9.20039 5.475 8.67539C4.95 8.15039 4.6875 7.47539 4.6875 6.65039C4.6875 5.82539 4.95 5.15039 5.475 4.62539C6 4.10039 6.675 3.83789 7.5 3.83789C8.325 3.83789 9 4.10039 9.525 4.62539C10.05 5.15039 10.3125 5.82539 10.3125 6.65039C10.3125 7.47539 10.05 8.15039 9.525 8.67539C9 9.20039 8.325 9.46289 7.5 9.46289ZM7.5 8.33789C7.9875 8.33789 8.39063 8.17852 8.70938 7.85977C9.02813 7.54102 9.1875 7.13789 9.1875 6.65039C9.1875 6.16289 9.02813 5.75977 8.70938 5.44102C8.39063 5.12227 7.9875 4.96289 7.5 4.96289C7.0125 4.96289 6.60938 5.12227 6.29063 5.44102C5.97188 5.75977 5.8125 6.16289 5.8125 6.65039C5.8125 7.13789 5.97188 7.54102 6.29063 7.85977C6.60938 8.17852 7.0125 8.33789 7.5 8.33789Z" fill="currentColor"/>
</svg>
