<svg viewBox="0 0 24 25" fill="currentColor" xmlns="http://www.w3.org/2000/svg">
<path d="M2.93333 24.8336C2.24444 24.8336 1.66667 24.6003 1.2 24.1336C0.733333 23.667 0.5 23.0892 0.5 22.4003V17.2336L4.5 12.7336L5.9 14.167L2.66667 17.8336H21.3333L18.1667 14.2336L19.5667 12.8003L23.5 17.2336V22.4003C23.5 23.0892 23.2667 23.667 22.8 24.1336C22.3333 24.6003 21.7556 24.8336 21.0667 24.8336H2.93333ZM2.93333 22.8336H21.0667C21.1778 22.8336 21.2778 22.7892 21.3667 22.7003C21.4556 22.6114 21.5 22.5114 21.5 22.4003V19.8336H2.5V22.4003C2.5 22.5114 2.54444 22.6114 2.63333 22.7003C2.72222 22.7892 2.82222 22.8336 2.93333 22.8336ZM10.3333 14.867L6 10.5003C5.53333 10.0336 5.30578 9.46698 5.31733 8.80031C5.328 8.13364 5.56667 7.56697 6.03333 7.10031L12.2333 0.900308C12.7 0.433641 13.2667 0.19453 13.9333 0.182975C14.6 0.172308 15.1667 0.400308 15.6333 0.866975L20 5.20031C20.4667 5.66697 20.7058 6.22786 20.7173 6.88297C20.728 7.53897 20.5 8.11142 20.0333 8.60031L13.7333 14.867C13.2667 15.3336 12.7 15.567 12.0333 15.567C11.3667 15.567 10.8 15.3336 10.3333 14.867ZM18.5667 7.20031C18.6333 7.13364 18.6667 7.03942 18.6667 6.91764C18.6667 6.79497 18.6333 6.70031 18.5667 6.63364L14.2333 2.30031C14.1667 2.23364 14.0724 2.20031 13.9507 2.20031C13.828 2.20031 13.7333 2.23364 13.6667 2.30031L7.43333 8.53364C7.36667 8.60031 7.33333 8.69497 7.33333 8.81764C7.33333 8.93942 7.36667 9.03364 7.43333 9.10031L11.7667 13.4336C11.8333 13.5003 11.928 13.5336 12.0507 13.5336C12.1724 13.5336 12.2667 13.5003 12.3333 13.4336L18.5667 7.20031Z" fill="currentColor"/>
</svg>
