<svg width="17" height="17" viewBox="0 0 17 17" fill="none" xmlns="http://www.w3.org/2000/svg">
<path d="M14.6667 3.9L2.26666 16.3333C2.06666 16.5333 1.82799 16.6333 1.55066 16.6333C1.27244 16.6333 1.03333 16.5333 0.833325 16.3333C0.633325 16.1333 0.533325 15.8942 0.533325 15.616C0.533325 15.3387 0.633325 15.1 0.833325 14.9L13.2667 2.5H2.33332C2.04444 2.5 1.80577 2.40533 1.61732 2.216C1.42799 2.02756 1.33333 1.78889 1.33333 1.5C1.33333 1.21111 1.42799 0.972444 1.61732 0.784C1.80577 0.594666 2.04444 0.5 2.33332 0.5H15.4667C15.8 0.5 16.0835 0.616445 16.3173 0.849333C16.5502 1.08311 16.6667 1.36667 16.6667 1.7V14.8333C16.6667 15.1222 16.5724 15.3613 16.384 15.5507C16.1947 15.7391 15.9555 15.8333 15.6667 15.8333C15.3778 15.8333 15.1387 15.7391 14.9493 15.5507C14.7609 15.3613 14.6667 15.1222 14.6667 14.8333V3.9Z" fill="#CCF2D5"/>
</svg>
