<svg width="9" height="16" viewBox="0 0 9 16" fill="none" xmlns="http://www.w3.org/2000/svg">
<path d="M1.17498 14.9187C1.03748 14.7687 0.965609 14.5937 0.959359 14.3937C0.953109 14.1937 1.02498 14.0187 1.17498 13.8687L7.08123 7.96248L1.17498 2.05623C1.03748 1.91873 0.965609 1.74686 0.959359 1.54061C0.953109 1.33436 1.02498 1.15623 1.17498 1.00623C1.31248 0.856234 1.48436 0.778109 1.69061 0.771859C1.89686 0.765609 2.07498 0.837484 2.22498 0.987484L8.80623 7.56874C8.86873 7.63124 8.91248 7.69373 8.93748 7.75624C8.96248 7.81874 8.97498 7.88748 8.97498 7.96248C8.97498 8.03748 8.96248 8.10624 8.93748 8.16874C8.91248 8.23124 8.86873 8.29374 8.80623 8.35624L2.22498 14.9375C2.08748 15.075 1.91561 15.1437 1.70936 15.1437C1.50311 15.1437 1.32498 15.0687 1.17498 14.9187Z" fill="#809191"/>
</svg>
