<svg viewBox="0 0 14 10" fill="currentColor" xmlns="http://www.w3.org/2000/svg">
<path d="M4.87496 9.62528C4.79163 9.62528 4.71524 9.6114 4.64579 9.58362C4.57635 9.55584 4.5069 9.50723 4.43746 9.43779L0.666626 5.66695C0.541626 5.54195 0.479126 5.38917 0.479126 5.20862C0.479126 5.02806 0.541626 4.87528 0.666626 4.75028C0.791626 4.62528 0.937459 4.56279 1.10413 4.56279C1.27079 4.56279 1.41663 4.62528 1.54163 4.75028L4.87496 8.08362L12.4375 0.521118C12.5625 0.396118 12.7118 0.333618 12.8854 0.333618C13.059 0.333618 13.2083 0.396118 13.3333 0.521118C13.4583 0.646118 13.5208 0.795424 13.5208 0.969035C13.5208 1.14265 13.4583 1.29195 13.3333 1.41695L5.31246 9.43779C5.24301 9.50723 5.17357 9.55584 5.10413 9.58362C5.03468 9.6114 4.95829 9.62528 4.87496 9.62528Z" fill="currentColor"/>
</svg>
