<svg viewBox="0 0 14 14" fill="none" xmlns="http://www.w3.org/2000/svg">
<path d="M7 8.25547L1.52285 13.7326C1.34503 13.9109 1.13578 14 0.895118 14C0.654881 14 0.445635 13.9109 0.267381 13.7326C0.0891269 13.5544 0 13.3451 0 13.1049C0 12.8642 0.0891269 12.655 0.267381 12.4771L5.74453 7L0.267381 1.52285C0.0891269 1.34503 0 1.13578 0 0.895118C0 0.654881 0.0891269 0.445635 0.267381 0.267381C0.445635 0.0891269 0.654881 0 0.895118 0C1.13578 0 1.34503 0.0891269 1.52285 0.267381L7 5.74453L12.4771 0.267381C12.655 0.0891269 12.8642 0 13.1049 0C13.3451 0 13.5544 0.0891269 13.7326 0.267381C13.9109 0.445635 14 0.654881 14 0.895118C14 1.13578 13.9109 1.34503 13.7326 1.52285L8.25547 7L13.7326 12.4771C13.9109 12.655 14 12.8642 14 13.1049C14 13.3451 13.9109 13.5544 13.7326 13.7326C13.5544 13.9109 13.3451 14 13.1049 14C12.8642 14 12.655 13.9109 12.4771 13.7326L7 8.25547Z" fill="currentColor"/>
</svg>
