<svg viewBox="0 0 26 26" fill="currentColor" xmlns="http://www.w3.org/2000/svg">
<path d="M14.3 0.400391C17.3222 0.68928 19.8947 1.88928 22.0173 4.00039C24.1391 6.1115 25.3444 8.68928 25.6333 11.7337H16.6C16.4 11.1782 16.1 10.7004 15.7 10.3004C15.3 9.90039 14.8333 9.60039 14.3 9.40039V0.400391ZM16.3 2.90039V8.20039C16.5889 8.42261 16.8613 8.65595 17.1173 8.90039C17.3724 9.14484 17.6 9.42261 17.8 9.73372H23.1333C22.6222 8.08928 21.7613 6.66128 20.5507 5.44972C19.3391 4.23906 17.9222 3.38928 16.3 2.90039ZM11.7667 0.400391V9.40039C11.0111 9.66706 10.4 10.1337 9.93334 10.8004C9.46667 11.4671 9.23334 12.2004 9.23334 13.0004C9.23334 13.8004 9.46667 14.5226 9.93334 15.1671C10.4 15.8115 11.0111 16.2671 11.7667 16.5337V25.6004C8.52222 25.2671 5.81111 23.9004 3.63334 21.5004C1.45556 19.1004 0.366669 16.2671 0.366669 13.0004C0.366669 9.73372 1.45556 6.89461 3.63334 4.48306C5.81111 2.07239 8.52222 0.711502 11.7667 0.400391ZM9.76667 2.90039C7.56667 3.56706 5.78311 4.83372 4.416 6.70039C3.04978 8.56706 2.36667 10.6671 2.36667 13.0004C2.36667 15.3337 3.04978 17.4337 4.416 19.3004C5.78311 21.1671 7.56667 22.4448 9.76667 23.1337V17.7337C8.98889 17.1782 8.37245 16.4893 7.91734 15.6671C7.46134 14.8448 7.23334 13.9559 7.23334 13.0004C7.23334 12.0448 7.46134 11.1502 7.91734 10.3164C8.37245 9.4835 8.98889 8.78928 9.76667 8.23372V2.90039ZM16.6 14.2671H25.6333C25.3444 17.2893 24.1391 19.8617 22.0173 21.9844C19.8947 24.1062 17.3222 25.3115 14.3 25.6004V16.5337C14.8333 16.3337 15.3 16.0391 15.7 15.6497C16.1 15.2613 16.4 14.8004 16.6 14.2671ZM17.8 16.2671C17.6 16.5559 17.3724 16.8226 17.1173 17.0671C16.8613 17.3115 16.5889 17.5337 16.3 17.7337V23.1004C17.9444 22.6115 19.3667 21.7617 20.5667 20.5511C21.7667 19.3395 22.6222 17.9115 23.1333 16.2671H17.8Z" fill="currentColor"/>
</svg>
