<svg width="18" height="18" viewBox="0 0 18 18" fill="none" xmlns="http://www.w3.org/2000/svg">
<path d="M16.6481 17.575L10.3297 11.3C9.82827 11.7167 9.25159 12.0417 8.59968 12.275C7.94778 12.5083 7.27917 12.625 6.59384 12.625C4.87215 12.625 3.41791 12.0333 2.23112 10.85C1.04432 9.66667 0.450928 8.21667 0.450928 6.5C0.450928 4.8 1.04432 3.354 2.23112 2.162C3.41791 0.970667 4.87215 0.375 6.59384 0.375C8.29881 0.375 9.74469 0.966667 10.9315 2.15C12.1183 3.33333 12.7117 4.78333 12.7117 6.5C12.7117 7.21667 12.5947 7.9 12.3607 8.55C12.1266 9.2 11.809 9.76667 11.4079 10.25L17.7012 16.525L16.6481 17.575ZM6.59384 11.125C7.88092 11.125 8.97177 10.675 9.86638 9.775C10.7603 8.875 11.2073 7.78333 11.2073 6.5C11.2073 5.21667 10.7603 4.125 9.86638 3.225C8.97177 2.325 7.88092 1.875 6.59384 1.875C5.29004 1.875 4.19117 2.325 3.29723 3.225C2.40262 4.125 1.95531 5.21667 1.95531 6.5C1.95531 7.78333 2.40262 8.875 3.29723 9.775C4.19117 10.675 5.29004 11.125 6.59384 11.125Z" fill="#364F4F"/>
</svg>
