<svg width="46" height="22" viewBox="0 0 46 22" fill="none" xmlns="http://www.w3.org/2000/svg">
<path d="M20.05 10.5C19.3167 10.5 18.7087 10.2167 18.226 9.65C17.742 9.08333 17.5667 8.41667 17.7 7.65L18.2 4.55C18.4 3.38333 18.9587 2.41667 19.876 1.65C20.792 0.883333 21.8333 0.5 23 0.5C24.2 0.5 25.2587 0.883333 26.176 1.65C27.092 2.41667 27.65 3.38333 27.85 4.55L28.35 7.65C28.4833 8.41667 28.3087 9.08333 27.826 9.65C27.342 10.2167 26.7333 10.5 26 10.5H20.05ZM20.75 7.5H25.3L24.9 5.05C24.8333 4.58333 24.6167 4.208 24.25 3.924C23.8833 3.64133 23.4667 3.5 23 3.5C22.5333 3.5 22.1247 3.64133 21.774 3.924C21.4247 4.208 21.2167 4.58333 21.15 5.05L20.75 7.5ZM5.85 12.15C5.21667 12.1833 4.65867 12.058 4.176 11.774C3.692 11.4913 3.38333 11.05 3.25 10.45C3.18333 10.1833 3.16667 9.92467 3.2 9.674C3.23333 9.42467 3.3 9.18333 3.4 8.95C3.4 8.98333 3.38333 8.91667 3.35 8.75C3.25 8.61667 3.16667 8.46667 3.1 8.3C3.03333 8.13333 2.98333 7.95 2.95 7.75C2.88333 7.38333 2.92533 7.05 3.076 6.75C3.22533 6.45 3.4 6.18333 3.6 5.95C3.63333 5.95 3.66667 5.91667 3.7 5.85C3.76667 5.31667 3.992 4.86667 4.376 4.5C4.75867 4.13333 5.23333 3.95 5.8 3.95C5.86667 3.95 6.13333 4 6.6 4.1H6.75C6.88333 3.93333 7.06667 3.81667 7.3 3.75C7.53333 3.68333 7.76667 3.65 8 3.65C8.33333 3.65 8.62533 3.7 8.876 3.8C9.12533 3.9 9.31667 4.05 9.45 4.25C9.48333 4.25 9.50867 4.258 9.526 4.274L9.55 4.3C9.95 4.33333 10.3 4.458 10.6 4.674C10.9 4.89133 11.1333 5.18333 11.3 5.55C11.3333 5.75 11.35 5.93333 11.35 6.1C11.35 6.26667 11.3167 6.45 11.25 6.65L11.3 6.8C11.5 7.03333 11.65 7.258 11.75 7.474C11.85 7.69133 11.9 7.93333 11.9 8.2C11.9 8.3 11.8167 8.6 11.65 9.1V9.3C11.6833 9.33333 11.7167 9.56667 11.75 10C11.75 10.6 11.5 11.108 11 11.524C10.5 11.9413 9.9 12.15 9.2 12.15H5.85ZM38.55 12.25C37.5833 12.25 36.7667 11.9167 36.1 11.25C35.4333 10.5833 35.1 9.78333 35.1 8.85C35.1 8.48333 35.15 8.15867 35.25 7.876C35.35 7.592 35.4833 7.3 35.65 7L34.45 5.95C34.15 5.71667 34.1 5.43333 34.3 5.1C34.5 4.76667 34.7667 4.6 35.1 4.6H38.5C39.4667 4.6 40.2833 4.93333 40.95 5.6C41.6167 6.26667 41.95 7.06667 41.95 8V8.85C41.95 9.78333 41.6167 10.5833 40.95 11.25C40.2833 11.9167 39.4833 12.25 38.55 12.25ZM1.75 21.1C1.25 21.1 0.833333 20.9333 0.5 20.6C0.166667 20.2667 0 19.85 0 19.35V18.65C0 17.2833 0.692 16.1833 2.076 15.35C3.45867 14.5167 5.26667 14.1 7.5 14.1C7.9 14.1 8.28333 14.1167 8.65 14.15C9.01667 14.1833 9.36667 14.2333 9.7 14.3C9.33333 14.8667 9.05867 15.4833 8.876 16.15C8.692 16.8167 8.6 17.5333 8.6 18.3V21.1H1.75ZM13.8 21.1C13.3 21.1 12.8753 20.9253 12.526 20.576C12.1753 20.2253 12 19.7833 12 19.25V18.4C12 16.4667 13.008 14.9167 15.024 13.75C17.0413 12.5833 19.7 12 23 12C26.3 12 28.9587 12.5833 30.976 13.75C32.992 14.9167 34 16.4667 34 18.4V19.25C34 19.7833 33.8253 20.2253 33.476 20.576C33.1253 20.9253 32.7 21.1 32.2 21.1H13.8ZM37.4 21.1V18.3C37.4 17.5333 37.3 16.8167 37.1 16.15C36.9 15.4833 36.6333 14.8667 36.3 14.3C36.6333 14.2333 36.9833 14.1833 37.35 14.15C37.7167 14.1167 38.1 14.1 38.5 14.1C40.7333 14.1 42.5413 14.5167 43.924 15.35C45.308 16.1833 46 17.2833 46 18.65V19.35C46 19.85 45.8333 20.2667 45.5 20.6C45.1667 20.9333 44.75 21.1 44.25 21.1H37.4ZM23 15C20.9 15 19.108 15.2833 17.624 15.85C16.1413 16.4167 15.3167 17.1 15.15 17.9V18.1H30.85V17.9C30.65 17.0667 29.8167 16.3747 28.35 15.824C26.8833 15.2747 25.1 15 23 15Z" fill="currentColor"/>
</svg>
