<svg viewBox="0 0 18 19" fill="none" xmlns="http://www.w3.org/2000/svg">
<path d="M4.58332 15.5829L2.29166 15.0829C2.08332 15.0413 1.91666 14.9335 1.79166 14.7596C1.66666 14.5863 1.61805 14.3954 1.64582 14.1871L1.87499 11.8329L0.31249 10.0413C0.173601 9.88849 0.104156 9.70793 0.104156 9.4996C0.104156 9.29127 0.173601 9.11071 0.31249 8.95793L1.87499 7.16627L1.64582 4.8121C1.61805 4.60377 1.66666 4.41294 1.79166 4.2396C1.91666 4.06571 2.08332 3.95794 2.29166 3.91627L4.58332 3.41627L5.79166 1.3746C5.90277 1.19405 6.05555 1.07599 6.24999 1.02044C6.44443 0.96488 6.63888 0.971824 6.83332 1.04127L8.99999 1.95794L11.1667 1.04127C11.3611 0.971824 11.5555 0.96488 11.75 1.02044C11.9444 1.07599 12.0972 1.19405 12.2083 1.3746L13.4167 3.41627L15.7083 3.91627C15.9167 3.95794 16.0833 4.06571 16.2083 4.2396C16.3333 4.41294 16.3819 4.60377 16.3542 4.8121L16.125 7.16627L17.6875 8.95793C17.8264 9.11071 17.8958 9.29127 17.8958 9.4996C17.8958 9.70793 17.8264 9.88849 17.6875 10.0413L16.125 11.8329L16.3542 14.1871C16.3819 14.3954 16.3333 14.5863 16.2083 14.7596C16.0833 14.9335 15.9167 15.0413 15.7083 15.0829L13.4167 15.5829L12.2083 17.6246C12.0972 17.8052 11.9444 17.9232 11.75 17.9788C11.5555 18.0343 11.3611 18.0274 11.1667 17.9579L8.99999 17.0413L6.83332 17.9579C6.63888 18.0274 6.44443 18.0343 6.24999 17.9788C6.05555 17.9232 5.90277 17.8052 5.79166 17.6246L4.58332 15.5829ZM7.54166 11.8746C7.69443 12.0274 7.88888 12.1038 8.12499 12.1038C8.3611 12.1038 8.55555 12.0274 8.70832 11.8746L12.25 8.33293C12.4167 8.16627 12.5 7.96821 12.5 7.73877C12.5 7.50988 12.4167 7.3121 12.25 7.14543C12.0833 6.97877 11.8855 6.89543 11.6567 6.89543C11.4272 6.89543 11.2292 6.97877 11.0625 7.14543L8.12499 10.0829L6.91666 8.89543C6.74999 8.74266 6.55221 8.6696 6.32332 8.67627C6.09388 8.68349 5.90277 8.76349 5.74999 8.91627C5.59721 9.06905 5.52082 9.26349 5.52082 9.4996C5.52082 9.73571 5.59721 9.93016 5.74999 10.0829L7.54166 11.8746Z" fill="#2EAE4E"/>
</svg>
